<svg id="File_management" height="512" viewBox="0 0 64 64" width="512" xmlns="http://www.w3.org/2000/svg" data-name="File management"><path d="m52 12v12h-27l-4-8h-7v-6-7h28v9z" fill="#78b9eb"/><path d="m61 24v31h-20.5l-2.5-10h9l-15-17-15 17h9l-2.5 10h-20.5v-32.17-6.83h4 7 7l4 8h27 5z" fill="#78b9eb"/><g fill="#006df0"><path d="m61 23h-3v-13a1 1 0 0 0 -1-1h-6.84l-7.49-6.74a.971.971 0 0 0 -.67-.26h-28a1 1 0 0 0 -1 1v6h-6a1 1 0 0 0 -1 1v5h-3a1 1 0 0 0 -1 1v39a1 1 0 0 0 1 1h19.22l-1.19 4.76a1.022 1.022 0 0 0 .18.86 1 1 0 0 0 .79.38h20a1 1 0 0 0 .79-.38 1.022 1.022 0 0 0 .18-.86l-1.19-4.76h19.22a1 1 0 0 0 1-1v-31a1 1 0 0 0 -1-1zm-5-12v12h-3v-11a1 1 0 0 0 -.33-.74l-.29-.26zm-13-5.75 6.39 5.75h-6.39zm-28-1.25h26v8a1 1 0 0 0 1 1h9v10h-25.38l-3.73-7.45a.988.988 0 0 0 -.89-.55h-6zm-7 7h5v4h-5zm15.28 49 3.69-14.76a1.022 1.022 0 0 0 -.18-.86 1 1 0 0 0 -.79-.38h-6.78l12.78-14.49 12.78 14.49h-6.78a1 1 0 0 0 -.79.38 1.022 1.022 0 0 0 -.18.86l3.69 14.76zm36.72-6h-18.72l-2-8h7.72a1 1 0 0 0 .75-1.66l-15-17a1.033 1.033 0 0 0 -1.5 0l-15 17a1 1 0 0 0 .75 1.66h7.72l-2 8h-18.72v-37h16.38l3.73 7.45a.988.988 0 0 0 .89.55h35z"/><path d="m18 7h5v2h-5z"/><path d="m26 7h11v2h-11z"/><path d="m18 11h19v2h-19z"/><path d="m27 15h21v2h-21z"/><path d="m27 19h21v2h-21z"/></g></svg>